<svg id="visual" viewBox="0 0 900 600" width="900" height="600" xmlns="http://www.w3.org/2000/svg" xmlns:xlink="http://www.w3.org/1999/xlink" version="1.1"><g stroke-width="1" stroke-linejoin="bevel"><path d="M476.9 309L505.9 366L554.7 350Z" fill="#081a28" stroke="#081a28"></path><path d="M554.7 350L576.7 304L476.9 309Z" fill="#246688" stroke="#246688"></path><path d="M476.9 309L419.1 380L505.9 366Z" fill="#246688" stroke="#246688"></path><path d="M419.1 380L484.9 436L505.9 366Z" fill="#277297" stroke="#277297"></path><path d="M505.9 366L551.7 446L554.7 350Z" fill="#0c2435" stroke="#0c2435"></path><path d="M657.5 388L632.5 285L576.7 304Z" fill="#205a7a" stroke="#205a7a"></path><path d="M425.1 232L404.1 281L476.9 309Z" fill="#15384f" stroke="#15384f"></path><path d="M657.5 388L576.7 304L554.7 350Z" fill="#15384f" stroke="#15384f"></path><path d="M571.7 206L476.9 309L576.7 304Z" fill="#297ea6" stroke="#297ea6"></path><path d="M476.9 309L404.1 281L419.1 380Z" fill="#246688" stroke="#246688"></path><path d="M484.9 436L551.7 446L505.9 366Z" fill="#246688" stroke="#246688"></path><path d="M632.5 285L571.7 206L576.7 304Z" fill="#081a28" stroke="#081a28"></path><path d="M465.9 201L425.1 232L476.9 309Z" fill="#297ea6" stroke="#297ea6"></path><path d="M571.7 206L465.9 201L476.9 309Z" fill="#112e42" stroke="#112e42"></path><path d="M635.5 447L657.5 388L554.7 350Z" fill="#297ea6" stroke="#297ea6"></path><path d="M571.7 206L481.9 169L465.9 201Z" fill="#277297" stroke="#277297"></path><path d="M465.9 201L388.1 144L425.1 232Z" fill="#297ea6" stroke="#297ea6"></path><path d="M551.7 446L635.5 447L554.7 350Z" fill="#277297" stroke="#277297"></path><path d="M317.3 382L384.1 434L419.1 380Z" fill="#15384f" stroke="#15384f"></path><path d="M419.1 380L384.1 434L484.9 436Z" fill="#246688" stroke="#246688"></path><path d="M484.9 436L504.9 529L551.7 446Z" fill="#205a7a" stroke="#205a7a"></path><path d="M741.4 280L671.5 211L632.5 285Z" fill="#277297" stroke="#277297"></path><path d="M632.5 285L671.5 211L571.7 206Z" fill="#246688" stroke="#246688"></path><path d="M571.7 206L555.7 128L481.9 169Z" fill="#1d4e6b" stroke="#1d4e6b"></path><path d="M325.3 246L320.3 318L404.1 281Z" fill="#1d4e6b" stroke="#1d4e6b"></path><path d="M404.1 281L320.3 318L419.1 380Z" fill="#205a7a" stroke="#205a7a"></path><path d="M325.3 246L404.1 281L425.1 232Z" fill="#277297" stroke="#277297"></path><path d="M677.5 161L555.7 128L571.7 206Z" fill="#00101c" stroke="#00101c"></path><path d="M407.1 516L504.9 529L484.9 436Z" fill="#15384f" stroke="#15384f"></path><path d="M551.7 446L585.7 533L635.5 447Z" fill="#277297" stroke="#277297"></path><path d="M388.1 144L325.3 246L425.1 232Z" fill="#112e42" stroke="#112e42"></path><path d="M388.1 144L465.9 201L481.9 169Z" fill="#19435d" stroke="#19435d"></path><path d="M320.3 318L317.3 382L419.1 380Z" fill="#081a28" stroke="#081a28"></path><path d="M384.1 434L407.1 516L484.9 436Z" fill="#0c2435" stroke="#0c2435"></path><path d="M317.3 382L336.3 438L384.1 434Z" fill="#297ea6" stroke="#297ea6"></path><path d="M504.9 529L585.7 533L551.7 446Z" fill="#00101c" stroke="#00101c"></path><path d="M479.9 91L388.1 144L481.9 169Z" fill="#205a7a" stroke="#205a7a"></path><path d="M335.3 520L407.1 516L384.1 434Z" fill="#277297" stroke="#277297"></path><path d="M745.4 367L741.4 280L657.5 388Z" fill="#15384f" stroke="#15384f"></path><path d="M657.5 388L741.4 280L632.5 285Z" fill="#1d4e6b" stroke="#1d4e6b"></path><path d="M745.4 367L657.5 388L734.4 464Z" fill="#0c2435" stroke="#0c2435"></path><path d="M731.4 231L677.5 161L671.5 211Z" fill="#081a28" stroke="#081a28"></path><path d="M671.5 211L677.5 161L571.7 206Z" fill="#00101c" stroke="#00101c"></path><path d="M734.4 464L657.5 388L635.5 447Z" fill="#277297" stroke="#277297"></path><path d="M741.4 280L731.4 231L671.5 211Z" fill="#15384f" stroke="#15384f"></path><path d="M553.7 82L479.9 91L555.7 128Z" fill="#246688" stroke="#246688"></path><path d="M555.7 128L479.9 91L481.9 169Z" fill="#19435d" stroke="#19435d"></path><path d="M631.5 62L553.7 82L555.7 128Z" fill="#19435d" stroke="#19435d"></path><path d="M585.7 533L666.5 523L635.5 447Z" fill="#205a7a" stroke="#205a7a"></path><path d="M666.5 523L734.4 464L635.5 447Z" fill="#1d4e6b" stroke="#1d4e6b"></path><path d="M479.9 91L394.1 90L388.1 144Z" fill="#112e42" stroke="#112e42"></path><path d="M303.3 128L268.5 212L325.3 246Z" fill="#205a7a" stroke="#205a7a"></path><path d="M422.1 0L394.1 90L479.9 91Z" fill="#112e42" stroke="#112e42"></path><path d="M232.5 505L335.3 520L336.3 438Z" fill="#1d4e6b" stroke="#1d4e6b"></path><path d="M336.3 438L335.3 520L384.1 434Z" fill="#1d4e6b" stroke="#1d4e6b"></path><path d="M407.1 516L490.9 600L504.9 529Z" fill="#205a7a" stroke="#205a7a"></path><path d="M325.3 246L233.5 280L320.3 318Z" fill="#00101c" stroke="#00101c"></path><path d="M320.3 318L224.5 375L317.3 382Z" fill="#19435d" stroke="#19435d"></path><path d="M317.3 382L227.5 465L336.3 438Z" fill="#15384f" stroke="#15384f"></path><path d="M303.3 128L325.3 246L388.1 144Z" fill="#081a28" stroke="#081a28"></path><path d="M411.1 600L490.9 600L407.1 516Z" fill="#112e42" stroke="#112e42"></path><path d="M504.9 529L490.9 600L585.7 533Z" fill="#0c2435" stroke="#0c2435"></path><path d="M585.7 533L647.5 600L666.5 523Z" fill="#19435d" stroke="#19435d"></path><path d="M677.5 161L631.5 62L555.7 128Z" fill="#081a28" stroke="#081a28"></path><path d="M553.7 82L547.7 0L479.9 91Z" fill="#297ea6" stroke="#297ea6"></path><path d="M719.4 50L631.5 62L677.5 161Z" fill="#112e42" stroke="#112e42"></path><path d="M490.9 600L595.7 600L585.7 533Z" fill="#19435d" stroke="#19435d"></path><path d="M749.4 526L798.2 429L734.4 464Z" fill="#0c2435" stroke="#0c2435"></path><path d="M268.5 212L233.5 280L325.3 246Z" fill="#00101c" stroke="#00101c"></path><path d="M394.1 90L303.3 128L388.1 144Z" fill="#297ea6" stroke="#297ea6"></path><path d="M268.5 212L174.6 218L233.5 280Z" fill="#081a28" stroke="#081a28"></path><path d="M745.4 367L811.2 319L741.4 280Z" fill="#0c2435" stroke="#0c2435"></path><path d="M741.4 280L833.2 208L731.4 231Z" fill="#15384f" stroke="#15384f"></path><path d="M731.4 231L757.4 131L677.5 161Z" fill="#246688" stroke="#246688"></path><path d="M821.2 356L811.2 319L745.4 367Z" fill="#15384f" stroke="#15384f"></path><path d="M335.3 520L411.1 600L407.1 516Z" fill="#0c2435" stroke="#0c2435"></path><path d="M749.4 526L734.4 464L666.5 523Z" fill="#297ea6" stroke="#297ea6"></path><path d="M734.4 464L798.2 429L745.4 367Z" fill="#15384f" stroke="#15384f"></path><path d="M233.5 280L224.5 375L320.3 318Z" fill="#277297" stroke="#277297"></path><path d="M798.2 429L821.2 356L745.4 367Z" fill="#19435d" stroke="#19435d"></path><path d="M595.7 600L647.5 600L585.7 533Z" fill="#205a7a" stroke="#205a7a"></path><path d="M833.2 208L757.4 131L731.4 231Z" fill="#19435d" stroke="#19435d"></path><path d="M728.4 600L749.4 526L666.5 523Z" fill="#277297" stroke="#277297"></path><path d="M329.3 0L308.3 82L394.1 90Z" fill="#297ea6" stroke="#297ea6"></path><path d="M394.1 90L308.3 82L303.3 128Z" fill="#112e42" stroke="#112e42"></path><path d="M303.3 128L236.5 160L268.5 212Z" fill="#297ea6" stroke="#297ea6"></path><path d="M224.5 375L227.5 465L317.3 382Z" fill="#15384f" stroke="#15384f"></path><path d="M335.3 520L314.3 600L411.1 600Z" fill="#1d4e6b" stroke="#1d4e6b"></path><path d="M660.5 0L547.7 0L631.5 62Z" fill="#205a7a" stroke="#205a7a"></path><path d="M631.5 62L547.7 0L553.7 82Z" fill="#0c2435" stroke="#0c2435"></path><path d="M249.5 70L236.5 160L303.3 128Z" fill="#081a28" stroke="#081a28"></path><path d="M233.5 280L171.6 365L224.5 375Z" fill="#1d4e6b" stroke="#1d4e6b"></path><path d="M547.7 0L466.9 0L479.9 91Z" fill="#15384f" stroke="#15384f"></path><path d="M811.2 319L833.2 208L741.4 280Z" fill="#19435d" stroke="#19435d"></path><path d="M900 280L833.2 208L811.2 319Z" fill="#00101c" stroke="#00101c"></path><path d="M466.9 0L422.1 0L479.9 91Z" fill="#112e42" stroke="#112e42"></path><path d="M820.2 50L719.4 50L757.4 131Z" fill="#277297" stroke="#277297"></path><path d="M757.4 131L719.4 50L677.5 161Z" fill="#15384f" stroke="#15384f"></path><path d="M227.5 465L232.5 505L336.3 438Z" fill="#246688" stroke="#246688"></path><path d="M833.2 208L803.2 131L757.4 131Z" fill="#081a28" stroke="#081a28"></path><path d="M259.5 600L314.3 600L335.3 520Z" fill="#19435d" stroke="#19435d"></path><path d="M647.5 600L728.4 600L666.5 523Z" fill="#277297" stroke="#277297"></path><path d="M749.4 526L827.2 542L798.2 429Z" fill="#205a7a" stroke="#205a7a"></path><path d="M224.5 375L174.6 455L227.5 465Z" fill="#00101c" stroke="#00101c"></path><path d="M227.5 465L174.6 455L232.5 505Z" fill="#246688" stroke="#246688"></path><path d="M150.6 288L171.6 365L233.5 280Z" fill="#1d4e6b" stroke="#1d4e6b"></path><path d="M719.4 50L660.5 0L631.5 62Z" fill="#15384f" stroke="#15384f"></path><path d="M184.6 153L174.6 218L236.5 160Z" fill="#1d4e6b" stroke="#1d4e6b"></path><path d="M236.5 160L174.6 218L268.5 212Z" fill="#297ea6" stroke="#297ea6"></path><path d="M171.6 365L174.6 455L224.5 375Z" fill="#0c2435" stroke="#0c2435"></path><path d="M232.5 505L259.5 600L335.3 520Z" fill="#205a7a" stroke="#205a7a"></path><path d="M329.3 0L249.5 70L308.3 82Z" fill="#112e42" stroke="#112e42"></path><path d="M308.3 82L249.5 70L303.3 128Z" fill="#112e42" stroke="#112e42"></path><path d="M174.6 218L150.6 288L233.5 280Z" fill="#246688" stroke="#246688"></path><path d="M171.6 365L95.8 397L174.6 455Z" fill="#112e42" stroke="#112e42"></path><path d="M422.1 0L329.3 0L394.1 90Z" fill="#297ea6" stroke="#297ea6"></path><path d="M249.5 70L184.6 153L236.5 160Z" fill="#0c2435" stroke="#0c2435"></path><path d="M174.6 218L96.8 206L150.6 288Z" fill="#112e42" stroke="#112e42"></path><path d="M799.2 600L827.2 542L749.4 526Z" fill="#246688" stroke="#246688"></path><path d="M798.2 429L900 385L821.2 356Z" fill="#1d4e6b" stroke="#1d4e6b"></path><path d="M821.2 356L900 280L811.2 319Z" fill="#0c2435" stroke="#0c2435"></path><path d="M172.6 600L259.5 600L232.5 505Z" fill="#297ea6" stroke="#297ea6"></path><path d="M900 385L900 280L821.2 356Z" fill="#15384f" stroke="#15384f"></path><path d="M833.2 208L900 129L803.2 131Z" fill="#246688" stroke="#246688"></path><path d="M900 461L900 385L798.2 429Z" fill="#205a7a" stroke="#205a7a"></path><path d="M900 280L900 248L833.2 208Z" fill="#0c2435" stroke="#0c2435"></path><path d="M728.4 600L799.2 600L749.4 526Z" fill="#19435d" stroke="#19435d"></path><path d="M820.2 50L756.4 0L719.4 50Z" fill="#277297" stroke="#277297"></path><path d="M719.4 50L756.4 0L660.5 0Z" fill="#0c2435" stroke="#0c2435"></path><path d="M820.2 50L757.4 131L803.2 131Z" fill="#0c2435" stroke="#0c2435"></path><path d="M900 538L900 461L827.2 542Z" fill="#15384f" stroke="#15384f"></path><path d="M827.2 542L900 461L798.2 429Z" fill="#297ea6" stroke="#297ea6"></path><path d="M900 93L820.2 50L803.2 131Z" fill="#205a7a" stroke="#205a7a"></path><path d="M900 248L900 129L833.2 208Z" fill="#1d4e6b" stroke="#1d4e6b"></path><path d="M329.3 0L238.5 0L249.5 70Z" fill="#246688" stroke="#246688"></path><path d="M249.5 70L144.6 55L184.6 153Z" fill="#297ea6" stroke="#297ea6"></path><path d="M150.6 288L95.8 397L171.6 365Z" fill="#15384f" stroke="#15384f"></path><path d="M174.6 455L143.6 548L232.5 505Z" fill="#297ea6" stroke="#297ea6"></path><path d="M56.8 310L95.8 397L150.6 288Z" fill="#277297" stroke="#277297"></path><path d="M96.8 206L174.6 218L184.6 153Z" fill="#205a7a" stroke="#205a7a"></path><path d="M900 600L900 538L827.2 542Z" fill="#15384f" stroke="#15384f"></path><path d="M80.8 442L143.6 548L174.6 455Z" fill="#112e42" stroke="#112e42"></path><path d="M74.8 133L96.8 206L184.6 153Z" fill="#277297" stroke="#277297"></path><path d="M143.6 548L172.6 600L232.5 505Z" fill="#112e42" stroke="#112e42"></path><path d="M900 129L900 93L803.2 131Z" fill="#297ea6" stroke="#297ea6"></path><path d="M820.2 50L827.2 0L756.4 0Z" fill="#277297" stroke="#277297"></path><path d="M900 0L827.2 0L820.2 50Z" fill="#1d4e6b" stroke="#1d4e6b"></path><path d="M0 352L80.8 442L95.8 397Z" fill="#112e42" stroke="#112e42"></path><path d="M95.8 397L80.8 442L174.6 455Z" fill="#112e42" stroke="#112e42"></path><path d="M143.6 548L62.8 600L172.6 600Z" fill="#277297" stroke="#277297"></path><path d="M167.6 0L144.6 55L249.5 70Z" fill="#0c2435" stroke="#0c2435"></path><path d="M0 285L56.8 310L96.8 206Z" fill="#15384f" stroke="#15384f"></path><path d="M96.8 206L56.8 310L150.6 288Z" fill="#15384f" stroke="#15384f"></path><path d="M799.2 600L900 600L827.2 542Z" fill="#19435d" stroke="#19435d"></path><path d="M238.5 0L167.6 0L249.5 70Z" fill="#19435d" stroke="#19435d"></path><path d="M82.8 86L74.8 133L184.6 153Z" fill="#081a28" stroke="#081a28"></path><path d="M82.8 86L184.6 153L144.6 55Z" fill="#1d4e6b" stroke="#1d4e6b"></path><path d="M0 510L77.8 545L80.8 442Z" fill="#112e42" stroke="#112e42"></path><path d="M80.8 442L77.8 545L143.6 548Z" fill="#00101c" stroke="#00101c"></path><path d="M97.8 0L82.8 86L144.6 55Z" fill="#277297" stroke="#277297"></path><path d="M900 93L900 0L820.2 50Z" fill="#081a28" stroke="#081a28"></path><path d="M56.8 310L0 352L95.8 397Z" fill="#0c2435" stroke="#0c2435"></path><path d="M0 285L0 352L56.8 310Z" fill="#19435d" stroke="#19435d"></path><path d="M0 285L96.8 206L0 204Z" fill="#00101c" stroke="#00101c"></path><path d="M0 204L96.8 206L0 164Z" fill="#15384f" stroke="#15384f"></path><path d="M167.6 0L97.8 0L144.6 55Z" fill="#277297" stroke="#277297"></path><path d="M0 164L96.8 206L74.8 133Z" fill="#205a7a" stroke="#205a7a"></path><path d="M0 164L74.8 133L0 96Z" fill="#1d4e6b" stroke="#1d4e6b"></path><path d="M0 600L62.8 600L77.8 545Z" fill="#0c2435" stroke="#0c2435"></path><path d="M77.8 545L62.8 600L143.6 548Z" fill="#205a7a" stroke="#205a7a"></path><path d="M0 352L0 454L80.8 442Z" fill="#00101c" stroke="#00101c"></path><path d="M0 96L74.8 133L82.8 86Z" fill="#1d4e6b" stroke="#1d4e6b"></path><path d="M0 454L0 510L80.8 442Z" fill="#112e42" stroke="#112e42"></path><path d="M0 0L0 96L82.8 86Z" fill="#081a28" stroke="#081a28"></path><path d="M0 510L0 600L77.8 545Z" fill="#00101c" stroke="#00101c"></path><path d="M97.8 0L0 0L82.8 86Z" fill="#081a28" stroke="#081a28"></path></g></svg>